<svg width="80" height="80" viewBox="0 0 80 80" fill="none" xmlns="http://www.w3.org/2000/svg">
<rect width="80" height="80" rx="16" fill="#F6EEFE"/>
<path d="M27.5604 34.6377V48.8792M35.5712 34.6377V48.8792M44.4722 34.6377V48.8792M52.483 34.6377V48.8792M24 51.7275L24 53.1517C24 54.1487 24 54.6472 24.194 55.028C24.3647 55.363 24.637 55.6353 24.972 55.806C25.3528 56 25.8513 56 26.8483 56H53.1951C54.1921 56 54.6906 56 55.0714 55.806C55.4064 55.6353 55.6787 55.363 55.8494 55.028C56.0434 54.6472 56.0434 54.1487 56.0434 53.1517V51.7275C56.0434 50.7305 56.0434 50.232 55.8494 49.8512C55.6787 49.5163 55.4064 49.2439 55.0714 49.0733C54.6906 48.8792 54.1921 48.8792 53.1951 48.8792H26.8483C25.8513 48.8792 25.3528 48.8792 24.972 49.0733C24.637 49.2439 24.3647 49.5163 24.194 49.8512C24 50.232 24 50.7305 24 51.7275ZM39.4038 24.0939L26.2304 27.0213C25.4346 27.1982 25.0366 27.2866 24.7396 27.5006C24.4776 27.6893 24.2719 27.9458 24.1445 28.2425C24 28.5789 24 28.9865 24 29.8018L24 31.7894C24 32.7864 24 33.2849 24.194 33.6657C24.3647 34.0007 24.637 34.273 24.972 34.4437C25.3528 34.6377 25.8513 34.6377 26.8483 34.6377H53.1951C54.1921 34.6377 54.6906 34.6377 55.0714 34.4437C55.4064 34.273 55.6787 34.0007 55.8494 33.6657C56.0434 33.2849 56.0434 32.7864 56.0434 31.7894V29.8018C56.0434 28.9865 56.0434 28.5789 55.899 28.2425C55.7715 27.9458 55.5658 27.6893 55.3038 27.5006C55.0068 27.2866 54.6089 27.1982 53.813 27.0213L40.6396 24.0939C40.409 24.0426 40.2937 24.017 40.1772 24.0068C40.0737 23.9977 39.9697 23.9977 39.8662 24.0068C39.7497 24.017 39.6344 24.0426 39.4038 24.0939Z" stroke="#4F2378" stroke-width="2" stroke-linecap="round" stroke-linejoin="round"/>
</svg>
