<svg width="80" height="80" viewBox="0 0 80 80" fill="none" xmlns="http://www.w3.org/2000/svg">
<rect width="80" height="80" rx="16" fill="#FEF1E8"/>
<path d="M42.7531 33.4333C41.7227 34.1679 40.4618 34.6 39.1 34.6C35.6206 34.6 32.8 31.7794 32.8 28.3C32.8 24.8206 35.6206 22 39.1 22C41.3554 22 43.3339 23.1852 44.4469 24.9667M29.2 54.5569H33.8985C34.5111 54.5569 35.12 54.6298 35.7139 54.7756L40.6784 55.982C41.7556 56.2444 42.8778 56.2699 43.9663 56.0585L49.4554 54.9906C50.9054 54.7081 52.2392 54.0138 53.2846 52.9969L57.1682 49.2191C58.2773 48.142 58.2773 46.3944 57.1682 45.3155C56.1697 44.3442 54.5885 44.2348 53.4588 45.0586L48.9327 48.3607C48.2845 48.8346 47.4958 49.0897 46.6846 49.0897H42.3139L45.0959 49.0896C46.664 49.0896 47.9341 47.854 47.9341 46.3286V45.7765C47.9341 44.5099 47.048 43.4055 45.7853 43.0994L41.4915 42.0551C40.7927 41.8857 40.077 41.8 39.3577 41.8C37.621 41.8 34.4774 43.2379 34.4774 43.2379L29.2 45.4448M54.4 30.1C54.4 33.5794 51.5794 36.4 48.1 36.4C44.6206 36.4 41.8 33.5794 41.8 30.1C41.8 26.6206 44.6206 23.8 48.1 23.8C51.5794 23.8 54.4 26.6206 54.4 30.1ZM22 44.68L22 55.12C22 56.1281 22 56.6321 22.1962 57.0172C22.3688 57.3559 22.6441 57.6312 22.9828 57.8038C23.3679 58 23.8719 58 24.88 58H26.32C27.3281 58 27.8321 58 28.2172 57.8038C28.5559 57.6312 28.8312 57.3559 29.0038 57.0172C29.2 56.6321 29.2 56.1281 29.2 55.12V44.68C29.2 43.6719 29.2 43.1679 29.0038 42.7828C28.8312 42.4441 28.5559 42.1688 28.2172 41.9962C27.8321 41.8 27.3281 41.8 26.32 41.8L24.88 41.8C23.8719 41.8 23.3679 41.8 22.9828 41.9962C22.6441 42.1688 22.3688 42.4441 22.1962 42.7828C22 43.1679 22 43.6719 22 44.68Z" stroke="#642E09" stroke-width="2" stroke-linecap="round" stroke-linejoin="round"/>
</svg>
