<svg width="80" height="80" viewBox="0 0 80 80" fill="none" xmlns="http://www.w3.org/2000/svg">
<rect width="80" height="80" rx="16" fill="#E9F9EF"/>
<path d="M41.5556 27.5556C41.5556 29.5192 37.1779 31.1111 31.7778 31.1111C26.3777 31.1111 22 29.5192 22 27.5556M41.5556 27.5556C41.5556 25.5919 37.1779 24 31.7778 24C26.3777 24 22 25.5919 22 27.5556M41.5556 27.5556V35.4794C39.384 36.1315 38 37.1181 38 38.2222M22 27.5556V48.8889C22 50.8526 26.3777 52.4444 31.7778 52.4444C34.1416 52.4444 36.3094 52.1394 38 51.6317V38.2222M22 34.6667C22 36.6303 26.3777 38.2222 31.7778 38.2222C34.1416 38.2222 36.3094 37.9172 38 37.4095M22 41.7778C22 43.7415 26.3777 45.3333 31.7778 45.3333C34.1416 45.3333 36.3094 45.0283 38 44.5206M57.5556 38.2222C57.5556 40.1859 53.1779 41.7778 47.7778 41.7778C42.3777 41.7778 38 40.1859 38 38.2222M57.5556 38.2222C57.5556 36.2585 53.1779 34.6667 47.7778 34.6667C42.3777 34.6667 38 36.2585 38 38.2222M57.5556 38.2222V52.4444C57.5556 54.4081 53.1779 56 47.7778 56C42.3777 56 38 54.4081 38 52.4444V38.2222M57.5556 45.3333C57.5556 47.297 53.1779 48.8889 47.7778 48.8889C42.3777 48.8889 38 47.297 38 45.3333" stroke="#0E4F26" stroke-width="2" stroke-linecap="round" stroke-linejoin="round"/>
</svg>
