<svg width="80" height="80" viewBox="0 0 80 80" fill="none" xmlns="http://www.w3.org/2000/svg">
<rect width="80" height="80" rx="16" fill="#F6EEFE"/>
<path d="M28 38V46M52 34V42M50 24C54.8974 24 57.5463 24.7495 58.8642 25.3309C59.0398 25.4083 59.1275 25.447 59.3808 25.6887C59.5326 25.8336 59.8098 26.2588 59.8811 26.4562C60 26.7855 60 26.9655 60 27.3255V48.8223C60 50.6398 60 51.5486 59.7275 52.0157C59.4502 52.4909 59.1828 52.7118 58.6639 52.8944C58.1537 53.0739 57.1239 52.876 55.0644 52.4803C53.6228 52.2033 51.913 52 50 52C44 52 38 56 30 56C25.1026 56 22.4537 55.2505 21.1358 54.6691C20.9602 54.5917 20.8725 54.553 20.6192 54.3113C20.4674 54.1664 20.1902 53.7412 20.1189 53.5438C20 53.2145 20 53.0345 20 52.6745L20 31.1777C20 29.3602 20 28.4514 20.2726 27.9843C20.5498 27.5091 20.8172 27.2882 21.3361 27.1056C21.8463 26.9261 22.8761 27.124 24.9357 27.5197C26.3772 27.7967 28.087 28 30 28C36 28 42 24 50 24ZM45 40C45 42.7614 42.7614 45 40 45C37.2386 45 35 42.7614 35 40C35 37.2386 37.2386 35 40 35C42.7614 35 45 37.2386 45 40Z" stroke="#4F2378" stroke-width="2" stroke-linecap="round" stroke-linejoin="round"/>
</svg>
