<svg width="80" height="80" viewBox="0 0 80 80" fill="none" xmlns="http://www.w3.org/2000/svg">
<rect width="80" height="80" rx="16" fill="#E9F9EF"/>
<path d="M39.2 28.8H39.895C44.7706 28.8 47.2084 28.8 48.1338 29.6757C48.9337 30.4326 49.2882 31.5477 49.0723 32.6275C48.8224 33.8768 46.8322 35.2846 42.8517 38.1L36.3484 42.6999C32.3678 45.5154 30.3776 46.9232 30.1277 48.1725C29.9118 49.2524 30.2663 50.3674 31.0662 51.1243C31.9916 52 34.4294 52 39.305 52H40.8M33.6 28.8C33.6 31.451 31.451 33.6 28.8 33.6C26.149 33.6 24 31.451 24 28.8C24 26.149 26.149 24 28.8 24C31.451 24 33.6 26.149 33.6 28.8ZM56 51.2C56 53.851 53.851 56 51.2 56C48.549 56 46.4 53.851 46.4 51.2C46.4 48.549 48.549 46.4 51.2 46.4C53.851 46.4 56 48.549 56 51.2Z" stroke="#0E4F26" stroke-width="2" stroke-linecap="round" stroke-linejoin="round"/>
</svg>
