<svg width="80" height="80" viewBox="0 0 80 80" fill="none" xmlns="http://www.w3.org/2000/svg">
<rect width="80" height="80" rx="16" fill="#FEF1E8"/>
<path d="M57.5556 56V52.4444C57.5556 49.131 55.2893 46.3468 52.2222 45.5574M46 24.5169C48.6061 25.5718 50.4444 28.1268 50.4444 31.1111C50.4444 34.0954 48.6061 36.6504 46 37.7053M48.6667 56C48.6667 52.6866 48.6667 51.03 48.1254 49.7231C47.4036 47.9807 46.0193 46.5964 44.2769 45.8746C42.97 45.3333 41.3134 45.3333 38 45.3333H32.6667C29.3533 45.3333 27.6966 45.3333 26.3898 45.8746C24.6474 46.5964 23.263 47.9807 22.5413 49.7231C22 51.03 22 52.6866 22 56M42.4444 31.1111C42.4444 35.0385 39.2607 38.2222 35.3333 38.2222C31.406 38.2222 28.2222 35.0385 28.2222 31.1111C28.2222 27.1838 31.406 24 35.3333 24C39.2607 24 42.4444 27.1838 42.4444 31.1111Z" stroke="#642E09" stroke-width="2" stroke-linecap="round" stroke-linejoin="round"/>
</svg>
